<svg height="16" viewBox="0 0 16 16" width="16" xmlns="http://www.w3.org/2000/svg"><path d="m0 0h16v16h-16z" fill="#fff" opacity="0"/><path d="m12.23 14.92h-8.31c-1.54 0-2.8-1.26-2.8-2.8v-8.31c0-1.54 1.26-2.8 2.8-2.8h7.62c.44 0 .8.36.8.8s-.36.8-.8.8h-7.62c-.66 0-1.2.54-1.2 1.2v8.31c0 .66.54 1.2 1.2 1.2h8.31c.66 0 1.2-.54 1.2-1.2v-4.54c0-.44.36-.8.8-.8s.8.36.8.8v4.54c0 1.54-1.26 2.8-2.8 2.8zm-4.26-4.92c-.22 0-.42-.09-.57-.24l-2.17-2.22c-.31-.32-.3-.82.01-1.13.32-.31.82-.3 1.13.01l1.6 1.63 6.66-6.81c.31-.32.82-.32 1.13-.01.32.31.32.82.01 1.13l-7.23 7.4c-.15.15-.36.24-.57.24z"/></svg>