<svg height="16" viewBox="0 0 16 16" width="16" xmlns="http://www.w3.org/2000/svg"><path d="m0 0h16v16h-16z" fill="#fff" opacity="0"/><path d="m5 14c-.26 0-.51-.1-.71-.29-.39-.39-.39-1.02 0-1.41l4.29-4.29-4.29-4.3c-.39-.39-.39-1.02 0-1.41s1.02-.39 1.41 0l5 5c.39.39.39 1.02 0 1.41l-5 5c-.2.2-.45.29-.71.29zm7.35-2.39 3.4-3.2c.16-.15.25-.36.25-.58s-.09-.43-.25-.58l-3.4-3.2c-.32-.3-.83-.29-1.13.03s-.29.83.03 1.13l2.78 2.62-2.78 2.62c-.32.3-.34.81-.03 1.13.16.17.37.25.58.25.2 0 .39-.07.55-.22zm-11 0 3.4-3.2c.16-.15.25-.36.25-.58s-.09-.43-.25-.58l-3.4-3.2c-.32-.3-.83-.29-1.13.03s-.29.83.03 1.13l2.78 2.62-2.78 2.61c-.32.3-.34.81-.03 1.13.16.17.37.25.58.25.2 0 .39-.07.55-.22z"/></svg>